<svg viewBox="0 0 16 16" width="16px" height="16px" xmlns="http://www.w3.org/2000/svg" xmlns:bx="https://boxy-svg.com">
  <path
    d="M 3 2.749 C 3 1.783 3.784 0.999 4.75 0.999 L 11.25 0.999 C 12.216 0.999 13 1.783 13 2.749 L 13 14.249 C 13 14.826 12.375 15.187 11.875 14.899 C 11.839 14.878 11.805 14.854 11.773 14.828 L 8 11.721 L 4.227 14.828 C 3.78 15.194 3.104 14.939 3.01 14.369 C 3.003 14.329 3 14.289 3 14.249 L 3 2.749 Z M 4.75 2.499 C 4.612 2.499 4.5 2.611 4.5 2.749 L 4.5 12.659 L 7.523 10.17 C 7.8 9.941 8.2 9.941 8.477 10.17 L 11.5 12.66 L 11.5 2.749 C 11.5 2.611 11.388 2.499 11.25 2.499 L 4.75 2.499 Z"></path>
</svg>
