<svg width="16px" height="16px" version="1.1" viewBox="0 0 16 16" xmlns="http://www.w3.org/2000/svg">
  <path
    d="m3 2.749c0-0.966 0.784-1.75 1.75-1.75h6.5c0.966 0 1.75 0.784 1.75 1.75v11.5c0 0.578-0.625 0.939-1.125 0.65-0.036-0.021-0.07-0.044-0.102-0.071l-3.773-3.107-3.773 3.107c-0.447 0.367-1.123 0.112-1.217-0.459-7e-3 -0.039-0.01-0.079-0.01-0.12zm1.75-0.25c-0.138 0-0.25 0.112-0.25 0.25v9.91l3.023-2.489c0.277-0.228 0.677-0.228 0.954 0l3.023 2.49v-9.911c0-0.138-0.112-0.25-0.25-0.25z"
    style="paint-order:stroke;stroke-linecap:round;stroke-linejoin:round;stroke-width:1.5px;stroke:#fff" />
  <path
    d="m3 2.749c0-0.966 0.784-1.75 1.75-1.75h6.5c0.966 0 1.75 0.784 1.75 1.75v11.5c0 0.578-0.625 0.939-1.125 0.65-0.036-0.021-0.07-0.044-0.102-0.071l-3.773-3.107-3.773 3.107c-0.447 0.367-1.123 0.112-1.217-0.459-7e-3 -0.039-0.01-0.079-0.01-0.12z"
    style="paint-order:stroke;stroke-linecap:round;stroke-linejoin:round;stroke-width:1.5px;stroke:#fff" />
  <path
    d="m8.2497 2.9851c0.268 0 0.509 0.164 0.609 0.412l2.891 7.227 1.141-2.852c0.099-0.249 0.341-0.412 0.609-0.413h2.843c0.505 0 0.821 0.547 0.569 0.985-0.118 0.203-0.335 0.328-0.569 0.328h-2.399l-1.585 3.961c-0.19 0.469-0.817 0.557-1.127 0.158-0.038-0.048-0.068-0.101-0.091-0.158l-2.891-7.225-1.141 2.853c-0.099 0.248-0.341 0.411-0.609 0.411h-8.843c-0.505 0-0.821-0.547-0.568-0.984 0.118-0.203 0.334-0.329 0.568-0.329h8.399l1.585-3.962c0.1-0.248 0.342-0.411 0.609-0.412z"
    style="paint-order:stroke;stroke-linecap:round;stroke-linejoin:round;stroke-width:2px;stroke:#fff" />
</svg>
