<!-- <svg xmlns="http://www.w3.org/2000/svg" viewBox="0 0 12 12" width="12" height="12">
  <path
    d="M1.757 10.243a6.001 6.001 0 1 1 8.488-8.486 6.001 6.001 0 0 1-8.488 8.486ZM6 4.763l-2-2L2.763 4l2 2-2 2L4 9.237l2-2
2 2L9.237 8l-2-2 2-2L8 2.763Z"></path>
</svg> -->
<svg viewBox="0 0 16 16" width="16px" height="16px" xmlns="http://www.w3.org/2000/svg" xmlns:bx="https://boxy-svg.com">
  <path
    d="M 2.341 13.648 C -2.01 9.295 -0.018 1.864 5.928 0.272 C 8.686 -0.467 11.63 0.321 13.65 2.342 C 18.001 6.694 16.01 14.126 10.064 15.718 C 7.305 16.457 4.362 15.668 2.341 13.648 Z M 7.994 6.346 L 5.33 3.681 L 3.682 5.329 L 6.346 7.994 L 3.682 10.66 L 5.33 12.308 L 7.994 9.642 L 10.659 12.308 L 12.307 10.66 L 9.642 7.994 L 12.307 5.329 L 10.659 3.681 L 7.994 6.346 Z"></path>
</svg>
