<svg xmlns="http://www.w3.org/2000/svg" viewBox="0 0 16 16" width="16" height="16">
  <path d="M3 2.75C3 1.784 3.784 1 4.75 1h6.5c.966 0 1.75.784 1.75 1.75v11.5a.75.75 0 0 1-1.227.579L8 11.722l-3.773 3.107A.751.751 0 0 1 3 14.25Zm1.75-.25a.25.25 0 0 0-.25.25v9.91l3.023-2.489a.75.75 0 0 1 .954 0l3.023 2.49V2.75a.25.25 0 0 0-.25-.25Z"></path>
  <!-- <path d="M 0 2.75 C 0 1.784 0.784 1 1.75 1 L 8.25 1 C 9.216 1 10 1.784 10 2.75 L 10 14.25 C 10 14.827 9.375 15.188 8.875 14.9 C 8.839 14.879 8.805 14.855 8.773 14.829 L 5 11.722 L 1.227 14.829 C 0.78 15.195 0.104 14.94 0.01 14.37 C 0.003 14.33 0 14.29 0 14.25 L 0 2.75 Z M 1.75 2.5 C 1.612 2.5 1.5 2.612 1.5 2.75 L 1.5 12.66 L 4.523 10.171 C 4.8 9.943 5.2 9.943 5.477 10.171 L 8.5 12.661 L 8.5 2.75 C 8.5 2.612 8.388 2.5 8.25 2.5 L 1.75 2.5 Z"></path> -->
</svg>
