<svg xmlns="http://www.w3.org/2000/svg" viewBox="0 0 16 16" width="16" height="16">
  <path class="unsuccessful"
    d="M0 8a8 8 0 1 1 16 0A8 8 0 0 1 0 8Zm11.333-2.167a.825.825 0 0 0-1.166-1.166l-5.5 5.5a.825.825 0 0 0 1.166 1.166Z">
  </path>
  <path class="success"
    d="M8 16A8 8 0 1 1 8 0a8 8 0 0 1 0 16Zm3.78-9.72a.751.751 0 0 0-.018-1.042.751.751 0 0 0-1.042-.018L6.75 9.19 5.28 7.72a.751.751 0 0 0-1.042.018.751.751 0 0 0-.018 1.042l2 2a.75.75 0 0 0 1.06 0Z">
  </path>

  <path class="forbidden"
    d="M6.457 1.047c.659-1.234 2.427-1.234 3.086 0l6.082 11.378A1.75 1.75 0 0 1 14.082 15H1.918a1.75 1.75 0 0 1-1.543-2.575ZM8 5a.75.75 0 0 0-.75.75v2.5a.75.75 0 0 0 1.5 0v-2.5A.75.75 0 0 0 8 5Zm1 6a1 1 0 1 0-2 0 1 1 0 0 0 2 0Z"></path>

  <path class="error"
    d="M6 2c.306 0 .582.187.696.471L10 10.731l1.304-3.26A.751.751 0 0 1 12 7h3.25a.75.75 0 0 1 0 1.5h-2.742l-1.812 4.528a.751.751 0 0 1-1.392 0L6 4.77 4.696 8.03A.75.75 0 0 1 4 8.5H.75a.75.75 0 0 1 0-1.5h2.742l1.812-4.529A.751.751 0 0 1 6 2Z"></path>

  <circle id="sync" class="check" cx="8" cy="8" r="7" fill="transparent" stroke-width="1">
    <animate attributeName="r" from="0" to="8" dur="1s" begin="indefinite" repeatCount="indefinite" />
    <animate attributeName="stroke-width" from="0.7" to="0" dur="1s" begin="indefinite" repeatCount="indefinite" />
  </circle>
</svg>
