<svg xmlns="http://www.w3.org/2000/svg" viewBox="0 0 16 16" width="16" height="16">

  <path class="success"
    d="M8 16A8 8 0 1 1 8 0a8 8 0 0 1 0 16Zm3.78-9.72a.751.751 0 0 0-.018-1.042.751.751 0 0 0-1.042-.018L6.75 9.19 5.28 7.72a.751.751 0 0 0-1.042.018.751.751 0 0 0-.018 1.042l2 2a.75.75 0 0 0 1.06 0Z">
  </path>

  <path class="forbidden"
    d="M6.457 1.047c.659-1.234 2.427-1.234 3.086 0l6.082 11.378A1.75 1.75 0 0 1 14.082 15H1.918a1.75 1.75 0 0 1-1.543-2.575ZM8 5a.75.75 0 0 0-.75.75v2.5a.75.75 0 0 0 1.5 0v-2.5A.75.75 0 0 0 8 5Zm1 6a1 1 0 1 0-2 0 1 1 0 0 0 2 0Z"></path>

  <path class="error"
    d="M6 2c.306 0 .582.187.696.471L10 10.731l1.304-3.26A.751.751 0 0 1 12 7h3.25a.75.75 0 0 1 0 1.5h-2.742l-1.812 4.528a.751.751 0 0 1-1.392 0L6 4.77 4.696 8.03A.75.75 0 0 1 4 8.5H.75a.75.75 0 0 1 0-1.5h2.742l1.812-4.529A.751.751 0 0 1 6 2Z"></path>

  <path class="redirected"
    d="M5.22 14.78a.75.75 0 0 0 1.06-1.06L4.56 12h8.69a.75.75 0 0 0 0-1.5H4.56l1.72-1.72a.75.75 0 0 0-1.06-1.06l-3 3a.75.75 0 0 0 0 1.06l3 3Zm5.56-6.5a.75.75 0 1 1-1.06-1.06l1.72-1.72H2.75a.75.75 0 0 1 0-1.5h8.69L9.72 2.28a.75.75 0 0 1 1.06-1.06l3 3a.75.75 0 0 1 0 1.06l-3 3Z"></path>

  <path class="timeout"
    d="M5.75.75A.75.75 0 0 1 6.5 0h3a.75.75 0 0 1 0 1.5h-.75v1l-.001.041a6.724 6.724 0 0 1 3.464 1.435l.007-.006.75-.75a.749.749 0 0 1 1.275.326.749.749 0 0 1-.215.734l-.75.75-.006.007a6.75 6.75 0 1 1-10.548 0L2.72 5.03l-.75-.75a.751.751 0 0 1 .018-1.042.751.751 0 0 1 1.042-.018l.75.75.007.006A6.72 6.72 0 0 1 7.25 2.541V1.5H6.5a.75.75 0 0 1-.75-.75ZM8 14.5a5.25 5.25 0 1 0-.001-10.501A5.25 5.25 0 0 0 8 14.5Zm.389-6.7 1.33-1.33a.75.75 0 1 1 1.061 1.06L9.45 8.861A1.503 1.503 0 0 1 8 10.75a1.499 1.499 0 1 1 .389-2.95Z"></path>

  <path class="lost"
    d="M0 8a8 8 0 1 1 16 0A8 8 0 0 1 0 8Zm11.333-2.167a.825.825 0 0 0-1.166-1.166l-5.5 5.5a.825.825 0 0 0 1.166 1.166Z">
  </path>

  <path class="unsuccessful"
    d="M0 8a8 8 0 1 1 16 0A8 8 0 0 1 0 8Zm8-6.5a6.5 6.5 0 1 0 0 13 6.5 6.5 0 0 0 0-13ZM6.92 6.085h.001a.749.749 0 1
  1-1.342-.67c.169-.339.436-.701.849-.977C6.845 4.16 7.369 4 8 4a2.756 2.756 0 0 1 1.637.525c.503.377.863.965.863 1.725
  0 .448-.115.83-.329 1.15-.205.307-.47.513-.692.662-.109.072-.22.138-.313.195l-.006.004a6.24 6.24 0 0 0-.26.16.952.952
  0 0 0-.276.245.75.75 0 0
  1-1.248-.832c.184-.264.42-.489.692-.661.103-.067.207-.132.313-.195l.007-.004c.1-.061.182-.11.258-.161a.969.969 0 0 0
  .277-.245C8.96 6.514 9 6.427 9 6.25a.612.612 0 0 0-.262-.525A1.27 1.27 0 0 0 8 5.5c-.369 0-.595.09-.74.187a1.01 1.01 0
  0 0-.34.398ZM9 11a1 1 0 1 1-2 0 1 1 0 0 1 2 0Z"></path>


  <circle id="sync" class="check" cx="8" cy="8" r="7" fill="transparent" stroke-width="1">
    <animate attributeName="r" from="0" to="8" dur="1s" begin="indefinite" repeatCount="indefinite" />
    <animate attributeName="stroke-width" from="0.7" to="0" dur="1s" begin="indefinite" repeatCount="indefinite" />
  </circle>
</svg>
