<svg xmlns="http://www.w3.org/2000/svg" viewBox="0 0 16 16" width="16" height="16">
  <path class="open"
    d="M.513 1.513A1.75 1.75 0 0 1 1.75 1h3.5c.55 0 1.07.26 1.4.7l.9 1.2a.25.25 0 0 0 .2.1H13a1 1 0 0 1 1 1v.5H2.75a.75.75 0 0 0 0 1.5h11.978a1 1 0 0 1 .994 1.117L15 13.25A1.75 1.75 0 0 1 13.25 15H1.75A1.75 1.75 0 0 1 0 13.25V2.75c0-.464.184-.91.513-1.237Z"></path>
  <path class="close"
    d="M1.75 1A1.75 1.75 0 0 0 0 2.75v10.5C0 14.216.784 15 1.75 15h12.5A1.75 1.75 0 0 0 16 13.25v-8.5A1.75 1.75 0 0 0 14.25 3H7.5a.25.25 0 0 1-.2-.1l-.9-1.2C6.07 1.26 5.55 1 5 1H1.75Z"></path>
</svg>
