<svg viewBox="0 0 16 16" width="16" height="16" xmlns="http://www.w3.org/2000/svg" xmlns:bx="https://boxy-svg.com">
  <path
    d="M 7.78 12.78 C 7.487 13.072 7.013 13.072 6.72 12.78 L 2.47 8.53 C 2.178 8.237 2.178 7.763 2.47 7.47 L 6.72 3.22 C 7.016 2.945 7.476 2.953 7.762 3.238 C 8.047 3.524 8.055 3.984 7.78 4.28 L 4.06 8 L 7.78 11.72 C 8.072 12.013 8.072 12.487 7.78 12.78 Z"></path>
  <path
    d="M 12.781 12.761 C 12.488 13.054 12.013 13.054 11.721 12.761 L 7.471 8.511 C 7.178 8.218 7.178 7.744 7.471 7.451 L 11.721 3.201 C 12.016 2.926 12.477 2.934 12.763 3.219 C 13.048 3.505 13.056 3.966 12.781 4.261 L 9.061 7.981 L 12.781 11.701 C 13.073 11.994 13.073 12.468 12.781 12.761 Z"></path>
</svg>
