<svg viewBox="0 0 16 16" width="16" height="16" xmlns="http://www.w3.org/2000/svg" xmlns:bx="https://boxy-svg.com">
  <path
    d="M 3.22 3.22 C 3.513 2.928 3.987 2.928 4.28 3.22 L 8.53 7.47 C 8.822 7.763 8.822 8.237 8.53 8.53 L 4.28 12.78 C 3.984 13.055 3.524 13.047 3.238 12.762 C 2.953 12.476 2.945 12.016 3.22 11.72 L 6.94 8 L 3.22 4.28 C 2.928 3.987 2.928 3.513 3.22 3.22 Z"></path>
  <path
    d="M 8.219 3.219 C 8.512 2.927 8.986 2.927 9.279 3.219 L 13.529 7.469 C 13.822 7.762 13.822 8.236 13.529 8.529 L 9.279 12.779 C 8.984 13.054 8.523 13.046 8.237 12.761 C 7.952 12.475 7.944 12.015 8.219 11.719 L 11.939 7.999 L 8.219 4.279 C 7.927 3.986 7.927 3.512 8.219 3.219 Z"></path>
</svg>
