<svg xmlns="http://www.w3.org/2000/svg" viewBox="0 0 16 16" width="16" height="16">
  <path class="check" d="M0 8a8 8 0 1 1 16 0A8 8 0 0 1 0 8Zm8-6.5a6.5 6.5 0 1 0 0 13 6.5 6.5 0 0 0 0-13Z"></path>
  <path class="fail" d="M0 8a8 8 0 1 1 16 0A8 8 0 0 1 0 8Zm11.333-2.167a.825.825 0 0 0-1.166-1.166l-5.5 5.5a.825.825 0 0 0 1.166 1.166Z"></path>
  <path class="success" d="M8 16A8 8 0 1 1 8 0a8 8 0 0 1 0 16Zm3.78-9.72a.751.751 0 0 0-.018-1.042.751.751 0 0 0-1.042-.018L6.75 9.19 5.28 7.72a.751.751 0 0 0-1.042.018.751.751 0 0 0-.018 1.042l2 2a.75.75 0 0 0 1.06 0Z"></path>
</svg>
